<svg id="Capa_1" enable-background="new 0 0 510.25 510.25" height="512" viewBox="0 0 510.25 510.25" width="512" xmlns="http://www.w3.org/2000/svg"><g><g><g><path d="m142.845 353.085h224.667v59.999h-224.667z" fill="#c8d1da"/></g><g><path d="m165.178 390.531v-37.446h-22.333v59.999h224.667v-22.553z" fill="#adb9c8"/></g><g><path d="m157.178 323.417h196.001v29.999h-196.001z" fill="#72869e"/></g><g><path d="m157.178 412.918h196.001v29.999h-196.001z" fill="#72869e"/></g><g><path d="m142.845 442.752h224.667v59.999h-224.667z" fill="#c8d1da"/></g><g><path d="m406.119 103.348c-7.909 0-15.59.975-22.934 2.802-18.362-57.986-72.601-100.016-136.662-100.016-66.774 0-122.875 45.664-138.796 107.467l-6.142 21.68c-4.129-.66-8.36-1.013-12.675-1.013-44.046 0-79.753 35.706-79.753 79.753 0 44.046 35.706 79.753 79.753 79.753h331.231c59.038-15.836 80.703-55.454 80.703-95.701 0-52.315-42.41-94.725-94.725-94.725z" fill="#fff"/></g><g><path d="m165.178 480.198v-37.446h-22.333v59.999h224.667v-22.553z" fill="#adb9c8"/></g><g><g><path d="m382.549 123.595c7.344-1.826 23.279-1.695 31.188-1.695 22.142 0 42.508 7.599 58.636 20.328-17.231-23.568-45.081-38.88-76.512-38.88-4.52 0-17.217-.778-21.567-.164 3.25 6.537 6.02 13.354 8.255 20.411z" fill="#cad8eb"/></g><g><path d="m27.033 232.573c0-44.046 35.706-79.753 79.753-79.753 4.315 0 8.546.354 12.675 1.013l6.142-21.68c15.922-61.803 72.022-107.467 138.796-107.467 35.901 0 68.715 13.203 93.861 35.014-26.269-32.661-66.559-53.566-111.737-53.566-66.774 0-122.875 45.664-138.796 107.467l-6.142 21.68c-4.129-.66-8.36-1.013-12.675-1.013-44.046 0-79.753 35.706-79.753 79.753 0 26.157 12.593 49.373 32.047 63.917-8.927-12.881-14.171-28.507-14.171-45.365z" fill="#cad8eb"/></g></g><g><path d="m165.178 375.584h15v15h-15z" fill="#fff"/></g><g><path d="m195.178 375.584h15v15h-15z" fill="#fff"/></g><g><path d="m165.178 465.251h15v15h-15z" fill="#fff"/></g><g><path d="m195.178 465.251h15v15h-15z" fill="#fff"/></g><g><path d="m142.845 263.419h224.667v59.999h-224.667z" fill="#c8d1da"/></g><g><path d="m165.178 300.865v-37.447h-22.333v59.999h224.667v-22.552z" fill="#adb9c8"/></g><g><path d="m165.178 285.918h15v15h-15z" fill="#fff"/></g><g><path d="m195.178 285.918h15v15h-15z" fill="#fff"/></g><g><circle cx="352.178" cy="188.07" fill="#e8ab4c" r="15.116"/></g><g><circle cx="304.516" cy="109.07" fill="#9eb6f4" r="15.116"/></g><g><circle cx="206.545" cy="68.071" fill="#9ce3bf" r="15.116"/></g><g><circle cx="158.381" cy="203.197" fill="#e08ea2" r="15.116"/></g></g><g><path d="m406.479 97.295c-6.048 0-12.082.533-18.016 1.588-24.246-66.178-93.588-107.43-163.313-97.381-59.67 8.599-109.656 53.277-124.703 111.688l14.525 3.742c15.668-60.816 72.938-103.704 135.671-101.917 62.03 1.766 109.635 44.052 127.849 101.563 29.372-7.303 58.861-4.35 82.987 15.257 22.908 18.616 35.185 48.288 31.754 77.652-3.583 30.666-23.489 57.401-51.535 70.106-16.987 7.696-33.334 6.702-51.52 6.702v15c18.289 0 34.896 1.076 52.277-5.76 32.264-12.691 56.808-40.285 64.089-74.43 13.377-62.734-35.887-123.81-100.065-123.81z"/><path d="m73.233 285.433c-46.849-9.912-71.13-64.846-46.91-106.156 25.001-42.642 82.841-45.928 115.494-10.752l10.9-10.305c-12.798-13.761-28.642-23.912-47.235-27.692l-.008.038c-63.546-11.73-120.174 48.542-99.721 111.408 9.369 28.798 34.547 52.446 64.586 58.178 16.14 3.08 33.489 1.683 49.84 1.683v-15c-15.546 0-31.536 1.006-46.946-1.402z"/><path d="m285.178 375.584h60v15h-60z"/><path d="m248.174 435.251h15.001v15h-15.001z"/><path d="m285.178 465.251h60v15h-60z"/><path d="m248.174 315.917h15.001v15h-15.001z"/><path d="m285.178 285.918h60v15h-60z"/><path d="m307.678 195.958h23.306c3.208 8.592 11.497 14.728 21.194 14.728 12.471 0 22.616-10.146 22.616-22.616s-10.146-22.616-22.616-22.616c-9.987 0-18.476 6.509-21.464 15.505h-38.036v74.96h-15v-110.359l16.425-16.424c3.119 1.625 6.659 2.55 10.413 2.55 12.471 0 22.616-10.146 22.616-22.616s-10.146-22.616-22.616-22.616-22.616 10.145-22.616 22.616c0 3.246.693 6.332 1.93 9.125l-21.151 21.152v116.571h-15v-159.904l-19.972-19.973c.938-2.48 1.455-5.166 1.455-7.971 0-12.471-10.146-22.616-22.616-22.616s-22.618 10.146-22.618 22.617 10.146 22.616 22.616 22.616c4.181 0 8.098-1.145 11.462-3.131l14.672 14.671v153.691h-15v-60.632h-38.113c-3.215-8.58-11.497-14.705-21.185-14.705-12.471 0-22.616 10.146-22.616 22.616s10.146 22.616 22.616 22.616c9.995 0 18.49-6.52 21.472-15.527h22.826v45.632h-67.333v74.999h15.332v14.668h-15.332v74.999h15.332v14.667h-15.332v74.999h239.666v-74.999h-14.332v-14.667h14.332v-74.999h-14.332v-14.668h14.332v-74.999h-67.333zm44.5-15.504c4.199 0 7.616 3.417 7.616 7.616s-3.417 7.616-7.616 7.616-7.616-3.417-7.616-7.616 3.417-7.616 7.616-7.616zm-47.662-79c4.199 0 7.616 3.417 7.616 7.616s-3.417 7.616-7.616 7.616-7.616-3.417-7.616-7.616 3.417-7.616 7.616-7.616zm-105.588-33.383c0-4.199 3.417-7.616 7.616-7.616s7.616 3.417 7.616 7.616-3.417 7.616-7.616 7.616-7.616-3.417-7.616-7.616zm-40.547 142.743c-4.199 0-7.616-3.417-7.616-7.616s3.417-7.616 7.616-7.616 7.616 3.417 7.616 7.616-3.417 7.616-7.616 7.616zm-8.036 149.771h209.666v44.999h-209.666zm195.334 74.666h-67.505v15h81.837v44.999h-209.666v-44.999h82.828v-15h-67.496v-14.667h180.002zm14.332-119.334h-81.837v15h67.505v14.668h-180.002v-14.668h67.496v-15h-82.828v-44.999h209.666z"/></g></g></svg>