<svg height="512" viewBox="0 0 64 64" width="512" xmlns="http://www.w3.org/2000/svg"><g id="Filled_outline" data-name="Filled outline"><path d="m17 29h4v4h-4z" fill="#f9bb4b"/><path d="m43 37h4v4h-4z" fill="#f9bb4b" transform="matrix(-1 0 0 -1 90 78)"/><path d="m31 7v50h-10v-24h-4v24a4 4 0 0 0 4 4h10a4 4 0 0 0 4-4v-50h8v30h4v-30a4 4 0 0 0 -4-4h-8a4 4 0 0 0 -4 4z" fill="#cfdfe8"/><path d="m49.555 46.168-2.679-1.786-.596-2.382h.72a1 1 0 0 0 1-1v-34a5.006 5.006 0 0 0 -5-5h-8a5.006 5.006 0 0 0 -5 5v49h-8v-27a1 1 0 0 0 -1-1h-.523l1.376-3.438 1.854-1.855-1.414-1.414-2 2a1.016 1.016 0 0 0 -.222.335l-.851 2.129-.25-1a1 1 0 0 0 -.415-.589l-3-2-1.11 1.664 2.679 1.786.596 2.382h-.72a1 1 0 0 0 -1 1v28a5.006 5.006 0 0 0 5 5h10a5.006 5.006 0 0 0 5-5v-49h6v33a1 1 0 0 0 1 1h.523l-1.376 3.438-1.854 1.855 1.414 1.414 2-2a1.016 1.016 0 0 0 .222-.335l.851-2.129.25 1a1 1 0 0 0 .415.589l3 2zm-31.555-16.168h2v2h-2zm28 10h-2v-2h2zm0-4h-2v-29a1 1 0 0 0 -1-1h-8a1 1 0 0 0 -1 1v50a3 3 0 0 1 -3 3h-10a3 3 0 0 1 -3-3v-23h2v23a1 1 0 0 0 1 1h10a1 1 0 0 0 1-1v-50a3 3 0 0 1 3-3h8a3 3 0 0 1 3 3z"/><path d="m18 14h2v5h-2z"/><path d="m22 17h5v2h-5z" transform="matrix(.6 -.8 .8 .6 -4.6 26.8)"/><path d="m12.5 15.5h2v5h-2z" transform="matrix(.8 -.6 .6 .8 -8.1 11.7)"/><path d="m44 51h2v5h-2z"/><path d="m37 51h5v2h-5z" transform="matrix(.6 -.8 .8 .6 -25.8 52.4)"/><path d="m49.5 49.5h2v5h-2z" transform="matrix(.8 -.6 .6 .8 -21.1 40.7)"/></g></svg>