<svg height="512" viewBox="0 0 128 128" width="512" xmlns="http://www.w3.org/2000/svg"><g><g><path d="m103.683 117.75h-26.11l.68-14.25 3.78-79.31h17.19l3.78 79.31z" fill="#eaeaf0"/><path d="m80.625 24.192h20v6h-20z" fill="#d8d8d8"/><path d="m47 75.69h68.5v42.81h-68.5z" fill="#d93922"/><g fill="#eaeaf0"><path d="m61.308 92.595h6v6h-6z"/><path d="m80.904 92.595h6v6h-6z"/><path d="m100.5 92.595h6v6h-6z"/></g><path d="m12.5 58h39.808v60.5h-39.808z" fill="#f7502f"/><path d="m6.5 115.5h115v6h-115z" fill="#eaeaf0"/><path d="m29.404 80.667h6v6h-6z" fill="#d8d8d8"/><path d="m6.5 58h51.808v6h-51.808z" fill="#eaeaf0"/><path d="m26.404 95.5h12v20h-12z" fill="#d8d8d8"/></g><g fill="#051720"><path d="m12.5 92.5a1.751 1.751 0 0 0 1.75-1.75v-4.083a1.75 1.75 0 0 0 -3.5 0v4.083a1.751 1.751 0 0 0 1.75 1.75z"/><path d="m94.547 53.872h.084a1.75 1.75 0 0 0 1.669-1.833l-.273-5.709a1.75 1.75 0 1 0 -3.5.167l.273 5.709a1.749 1.749 0 0 0 1.747 1.666z"/><path d="m99.625 10.75a7.759 7.759 0 0 0 -7.75 7.75 1.75 1.75 0 0 0 3.5 0 4.255 4.255 0 0 1 4.25-4.25h5.275a1.75 1.75 0 0 0 0-3.5z"/><path d="m121.5 10.75h-9.223a1.75 1.75 0 0 0 0 3.5h9.223a1.75 1.75 0 0 0 0-3.5z"/><path d="m119.09 8.25h2.41a1.75 1.75 0 0 0 0-3.5h-2.41a1.75 1.75 0 0 0 0 3.5z"/><path d="m87.625 20.25a1.75 1.75 0 0 0 1.75-1.75 10.261 10.261 0 0 1 10.25-10.25h9.84a1.75 1.75 0 0 0 0-3.5h-9.84a13.765 13.765 0 0 0 -13.75 13.75 1.75 1.75 0 0 0 1.75 1.75z"/><path d="m121.5 113.75h-4.25v-38.06a1.75 1.75 0 0 0 -1.75-1.75h-12.152l-2.01-42.152a1.75 1.75 0 0 0 1.037-1.6v-6a1.75 1.75 0 0 0 -1.75-1.75h-20a1.75 1.75 0 0 0 -1.75 1.75v6a1.75 1.75 0 0 0 1.037 1.6l-.487 10.212a1.75 1.75 0 0 0 1.665 1.832h.084a1.75 1.75 0 0 0 1.747-1.667l.488-10.229h14.432l2 42h-18.435l1.058-22.195a1.75 1.75 0 0 0 -1.664-1.828 1.732 1.732 0 0 0 -1.831 1.665l-1.069 22.362h-23.84v-8.19h4.248a1.751 1.751 0 0 0 1.75-1.75v-6a1.751 1.751 0 0 0 -1.75-1.75h-51.808a1.751 1.751 0 0 0 -1.75 1.75v6a1.751 1.751 0 0 0 1.75 1.75h4.25v13.417a1.75 1.75 0 0 0 3.5 0v-13.417h36.31v48h-10.406v-18.25a1.751 1.751 0 0 0 -1.75-1.75h-12a1.75 1.75 0 0 0 -1.75 1.75v18.25h-10.404v-15.917a1.75 1.75 0 0 0 -3.5 0v15.917h-4.25a1.751 1.751 0 0 0 -1.75 1.75v6a1.751 1.751 0 0 0 1.75 1.75h115a1.75 1.75 0 0 0 1.75-1.75v-6a1.75 1.75 0 0 0 -1.75-1.75zm-39.125-87.808h16.5v2.5h-16.5zm-74.125 33.808h48.308v2.5h-48.308zm19.9 37.5h8.5v16.5h-8.5zm91.6 22.5h-111.5v-2.5h82.417a1.75 1.75 0 0 0 0-3.5h-36.607v-36.31h59.69v36.31h-12.07a1.75 1.75 0 0 0 0 3.5h18.07z"/><path d="m35.4 88.417a1.751 1.751 0 0 0 1.75-1.75v-6a1.75 1.75 0 0 0 -1.75-1.75h-6a1.749 1.749 0 0 0 -1.75 1.75v6a1.75 1.75 0 0 0 1.75 1.75zm-4.25-6h2.5v2.5h-2.5z"/><path d="m67.308 90.845h-6a1.75 1.75 0 0 0 -1.75 1.75v6a1.749 1.749 0 0 0 1.75 1.75h6a1.75 1.75 0 0 0 1.75-1.75v-6a1.751 1.751 0 0 0 -1.75-1.75zm-1.75 6h-2.5v-2.5h2.5z"/><path d="m86.9 90.845h-6a1.75 1.75 0 0 0 -1.75 1.75v6a1.749 1.749 0 0 0 1.75 1.75h6a1.749 1.749 0 0 0 1.75-1.75v-6a1.75 1.75 0 0 0 -1.75-1.75zm-1.75 6h-2.5v-2.5h2.5z"/><path d="m106.5 100.345a1.749 1.749 0 0 0 1.75-1.75v-6a1.75 1.75 0 0 0 -1.75-1.75h-6a1.75 1.75 0 0 0 -1.75 1.75v6a1.749 1.749 0 0 0 1.75 1.75zm-4.25-6h2.5v2.5h-2.5z"/></g></g></svg>