<svg height='300px' width='300px'  fill="#000000" xmlns="http://www.w3.org/2000/svg" xmlns:xlink="http://www.w3.org/1999/xlink" version="1.1" x="0px" y="0px" viewBox="0 0 100 100" enable-background="new 0 0 100 100" xml:space="preserve"><g><path d="M54.195,18.169c-1.159,0-2.234,0.479-2.997,1.24c0,0.028-0.028,0.028-0.028,0.028c0,0.028-0.028,0.028-0.028,0.028   l-8.284,8.29L32.171,38.414l-12.864,12.83c-1.611,1.635-1.611,4.258,0,5.864l23.551,23.517c1.612,1.607,4.27,1.607,5.909,0   l12.864-12.829l10.658-10.688l8.313-8.261c0,0,0.028-0.028,0.057-0.028v-0.028c0.763-0.762,1.243-1.805,1.243-2.961V22.342   c0-1.155-0.452-2.199-1.215-2.933c-0.735-0.761-1.81-1.24-2.969-1.24H54.195L54.195,18.169z M54.195,19.776h23.522   c0.734,0,1.356,0.282,1.837,0.733c0.453,0.479,0.735,1.1,0.735,1.832V45.83c0,0.733-0.282,1.382-0.763,1.833   c0,0.028-0.028,0.028-0.028,0.028l-0.028,0.028l-8.284,8.289L60.472,66.668L47.607,79.497c-1.018,1.016-2.629,1.016-3.646,0   L20.438,56.009c-1.018-1.015-1.018-2.622,0-3.637l12.864-12.83l10.659-10.658l8.312-8.29c0.028-0.028,0.057-0.028,0.057-0.028   s0-0.028,0.028-0.028C52.81,20.059,53.46,19.776,54.195,19.776L54.195,19.776z M71.837,23.64c-1.159,0-2.347,0.451-3.224,1.325   c-1.78,1.776-1.752,4.681,0.028,6.457c1.781,1.776,4.665,1.776,6.446,0s1.781-4.681,0-6.457c-0.028,0-0.028-0.028-0.057-0.057   s-0.085-0.057-0.112-0.057c-0.028-0.028-0.057-0.028-0.085-0.057c-0.028,0-0.057-0.028-0.057-0.028   C73.929,24.063,72.911,23.64,71.837,23.64L71.837,23.64z M71.837,25.218c0.764,0,1.555,0.311,2.12,0.902   c1.188,1.156,1.188,3.018,0,4.202c-1.159,1.155-3.025,1.155-4.212,0c-1.159-1.185-1.159-3.074,0-4.229   C70.338,25.5,71.073,25.218,71.837,25.218L71.837,25.218z M54.336,28.095c-0.169,0.027-0.339,0.112-0.48,0.253L27.817,54.346   c-0.34,0.281-0.396,0.846-0.057,1.184c0.311,0.311,0.904,0.282,1.188-0.084l26.038-25.97c0.452-0.451,0.057-1.381-0.565-1.381   C54.393,28.095,54.364,28.095,54.336,28.095L54.336,28.095z M59.058,40.05c-0.17,0.028-0.339,0.141-0.48,0.254L39.805,59.055   c-0.34,0.281-0.368,0.874-0.057,1.184c0.311,0.311,0.904,0.282,1.188-0.056l18.801-18.751C60.217,40.98,59.736,39.965,59.058,40.05   L59.058,40.05z M71.045,44.787c-0.169,0.028-0.339,0.112-0.48,0.254L44.526,71.01c-0.312,0.282-0.312,0.846,0,1.128   c0.282,0.311,0.848,0.311,1.131,0l26.038-25.969C72.176,45.689,71.724,44.702,71.045,44.787L71.045,44.787z"></path></g></svg>